<?xml version="1.0" encoding="UTF-8" standalone="no"?>
<!-- Created with Inkscape (http://www.inkscape.org/) -->

<svg
   width="24"
   height="24"
   viewBox="0 0 6.3499997 6.3499998"
   version="1.1"
   id="svg1"
   xml:space="preserve"
   inkscape:version="1.3 (0e150ed6c4, 2023-07-21)"
   sodipodi:docname="icon.svg"
   xmlns:inkscape="http://www.inkscape.org/namespaces/inkscape"
   xmlns:sodipodi="http://sodipodi.sourceforge.net/DTD/sodipodi-0.dtd"
   xmlns="http://www.w3.org/2000/svg"
   xmlns:svg="http://www.w3.org/2000/svg"><sodipodi:namedview
     id="namedview1"
     pagecolor="#ffffff"
     bordercolor="#000000"
     borderopacity="0.25"
     inkscape:showpageshadow="2"
     inkscape:pageopacity="0.0"
     inkscape:pagecheckerboard="true"
     inkscape:deskcolor="#d1d1d1"
     inkscape:document-units="px"
     showborder="true"
     inkscape:zoom="11.313708"
     inkscape:cx="6.363961"
     inkscape:cy="14.009553"
     inkscape:window-width="1920"
     inkscape:window-height="1009"
     inkscape:window-x="-8"
     inkscape:window-y="-8"
     inkscape:window-maximized="1"
     inkscape:current-layer="layer3" /><defs
     id="defs1"><inkscape:perspective
       sodipodi:type="inkscape:persp3d"
       inkscape:vp_x="0 : 3.1749999 : 1"
       inkscape:vp_y="0 : 999.99997 : 0"
       inkscape:vp_z="6.3499997 : 3.1749999 : 1"
       inkscape:persp3d-origin="3.1749999 : 2.1166666 : 1"
       id="perspective6" /></defs><g
     inkscape:groupmode="layer"
     id="layer3"
     inkscape:label="Layer 1"
     transform="matrix(1.4065527,0,0,1.4065527,-5.1539718,-3.4620484)"><path
       d="m 7.3994325,3.7814043 c 0.1283375,0 0.2382878,0.0099 0.3449574,0.049899 0.3209831,0.1203681 0.4146996,0.2385577 0.4013656,0.4252302 -0.00456,0.063839 -0.020077,0.1638756 -0.045561,0.2798713 L 7.0978659,4.020053 C 7.0686805,3.9195157 7.0289581,3.8442552 6.9438282,3.790081 c 0.1800057,0 0.3272668,-0.00868 0.4556043,-0.00868 z M 6.7160263,3.870356 C 6.8103953,3.867816 6.8886256,3.889476 6.945998,3.939781 7.1754872,4.1410147 6.96693,4.713974 6.479546,5.2176421 5.9921623,5.7213099 5.4094792,5.9656016 5.1799893,5.764367 4.9505002,5.5631331 5.161227,4.9901738 5.6486109,4.4865064 6.0141487,4.1087553 6.4329187,3.8780241 6.7160263,3.870356 Z M 8.1522639,4.5624402 7.98087,6.8274442 5.9870597,6.9641252 6.522937,6.7124579 7.2410558,6.1462067 7.7986285,5.4497832 8.1175515,4.8010896 Z m -0.060747,0.017358 C 8.0395554,4.7967145 7.9424631,5.0699907 7.7704244,5.3239528 7.6400886,5.5163534 7.4371449,5.7475544 7.2215299,5.9639678 6.9739257,6.2124889 6.7110345,6.4425306 6.5185979,6.5779488 6.179359,6.8166729 5.8869343,6.9613215 5.6312546,6.9771451 L 6.0868587,5.7817263 7.2215299,5.9639678 6.9590153,4.9095698 Z M 5.0107651,5.8316254 c 0,0 0.011016,0.065576 0.1171551,0.1171557 l 0.4816389,1.028364 c -0.00842,2.833e-4 -0.01552,0 -0.023865,0 -0.2666749,0 -0.4819088,-0.065583 -0.5619115,-0.3189232 C 4.9437796,6.4048805 5.0107652,5.8316254 5.0107651,5.8316254 Z"
       id="path1"
       style="stroke-width:0.031232" /><g
       id="g1"
       transform="matrix(0.00614131,0,0,0.00614131,3.4482067,2.4657724)">&#10;	<path
   class="st0"
   d="m 473.818,0.003 c 0,0 -18.578,28.297 -139.938,70.172 -123.719,42.688 -199.875,216.406 -199.875,216.406 -18.344,35.578 -90.813,183.453 -90.813,183.453 -19.953,38.172 16.625,60.734 38.063,21.313 41.156,-75.703 67.688,-144.875 130.25,-146.844 91.219,-2.875 153.609,-84.109 133.984,-80.359 -25.844,11.484 -82.781,0.875 -49.234,-4.391 80.531,-6.594 130.125,-68.297 113.969,-72.5 -28.563,11.219 -55.172,0.578 -60.391,-2.656 C 491.959,166.987 473.818,0.003 473.818,0.003 Z"
   id="path1-8" />&#10;</g></g><style
     type="text/css"
     id="style1">&#10;<![CDATA[
	.st0{fill:#000000;}
]]>&#10;</style></svg>
